<?xml version="1.0" encoding="UTF-8"?><svg xmlns="http://www.w3.org/2000/svg" xmlns:xlink="http://www.w3.org/1999/xlink" fill-opacity="1" color-rendering="auto" color-interpolation="auto" text-rendering="auto" stroke="black" stroke-linecap="square" width="710" stroke-miterlimit="10" shape-rendering="auto" stroke-opacity="1" fill="black" stroke-dasharray="none" font-weight="normal" stroke-width="1" height="779" font-family="'Dialog'" font-style="normal" stroke-linejoin="miter" font-size="12" stroke-dashoffset="0" image-rendering="auto">
  <!--Generated by ySVG 2.5-->
  <defs id="genericDefs"/>
  <g>
    <defs id="defs1">
      <clipPath clipPathUnits="userSpaceOnUse" id="clipPath1">
        <path d="M0 0 L710 0 L710 779 L0 779 L0 0 Z"/>
      </clipPath>
      <clipPath clipPathUnits="userSpaceOnUse" id="clipPath2">
        <path d="M303 125 L1013 125 L1013 904 L303 904 L303 125 Z"/>
      </clipPath>
    </defs>
    <g fill="white" text-rendering="geometricPrecision" shape-rendering="geometricPrecision" transform="translate(-303,-125)" stroke="white">
      <rect x="303" width="710" height="779" y="125" clip-path="url(#clipPath2)" stroke="none"/>
    </g>
    <g fill="white" text-rendering="geometricPrecision" shape-rendering="geometricPrecision" transform="matrix(1,0,0,1,-303,-125)" stroke="white">
      <rect x="423" width="464" height="76" y="140" clip-path="url(#clipPath2)" stroke="none"/>
    </g>
    <g font-size="16" stroke-linecap="butt" transform="matrix(1,0,0,1,-303,-125)" text-rendering="geometricPrecision" font-family="'DejaVu Serif'" shape-rendering="geometricPrecision" font-weight="bold" stroke-miterlimit="1.45">
      <text x="534.9102" xml:space="preserve" y="174.2266" clip-path="url(#clipPath2)" stroke="none">JavaScript Object Notation</text>
      <text x="544.4961" xml:space="preserve" y="193.0234" clip-path="url(#clipPath2)" stroke="none">Byte streams to packets </text>
    </g>
    <g fill="white" text-rendering="geometricPrecision" shape-rendering="geometricPrecision" transform="matrix(1,0,0,1,-303,-125)" stroke="white">
      <rect x="423" width="1" height="76" y="140" clip-path="url(#clipPath2)" stroke="none"/>
      <rect x="424" width="462" height="1" y="140" clip-path="url(#clipPath2)" stroke="none"/>
      <rect x="424" y="215" clip-path="url(#clipPath2)" fill="rgb(178,178,178)" width="463" height="1" stroke="none"/>
      <rect x="886" y="140" clip-path="url(#clipPath2)" fill="rgb(178,178,178)" width="1" height="75" stroke="none"/>
      <rect x="539" y="305" clip-path="url(#clipPath2)" fill="rgb(255,204,0)" width="201" height="41" stroke="none"/>
    </g>
    <g font-size="13" stroke-linecap="butt" transform="matrix(1,0,0,1,-303,-125)" text-rendering="geometricPrecision" font-family="sans-serif" shape-rendering="geometricPrecision" stroke-miterlimit="1.45">
      <text x="621.26" xml:space="preserve" y="330.0005" clip-path="url(#clipPath2)" stroke="none">Bytes</text>
      <rect fill="none" x="539" width="201" height="41" y="305" clip-path="url(#clipPath2)"/>
    </g>
    <g fill="rgb(204,255,255)" text-rendering="geometricPrecision" shape-rendering="geometricPrecision" transform="matrix(1,0,0,1,-303,-125)" stroke="rgb(204,255,255)">
      <rect x="478.5" width="322" height="50" y="405.375" clip-path="url(#clipPath2)" stroke="none"/>
    </g>
    <g font-size="13" stroke-linecap="butt" transform="matrix(1,0,0,1,-303,-125)" text-rendering="geometricPrecision" font-family="sans-serif" shape-rendering="geometricPrecision" stroke-miterlimit="1.45">
      <text x="580.7207" xml:space="preserve" y="434.8755" clip-path="url(#clipPath2)" stroke="none">Idle State Handler</text>
      <rect fill="none" x="478.5" width="322" height="50" y="405.375" clip-path="url(#clipPath2)"/>
    </g>
    <g fill="rgb(204,255,255)" text-rendering="geometricPrecision" shape-rendering="geometricPrecision" transform="matrix(1,0,0,1,-303,-125)" stroke="rgb(204,255,255)">
      <rect x="478.5" width="322" height="50" y="503.75" clip-path="url(#clipPath2)" stroke="none"/>
    </g>
    <g font-size="13" stroke-linecap="butt" transform="matrix(1,0,0,1,-303,-125)" text-rendering="geometricPrecision" font-family="sans-serif" shape-rendering="geometricPrecision" stroke-miterlimit="1.45">
      <text x="579.6733" xml:space="preserve" y="533.2505" clip-path="url(#clipPath2)" stroke="none">Delimeter Handler</text>
      <rect fill="none" x="478.5" width="322" height="50" y="503.75" clip-path="url(#clipPath2)"/>
    </g>
    <g fill="rgb(204,255,255)" text-rendering="geometricPrecision" shape-rendering="geometricPrecision" transform="matrix(1,0,0,1,-303,-125)" stroke="rgb(204,255,255)">
      <rect x="476" width="322" height="50" y="740.25" clip-path="url(#clipPath2)" stroke="none"/>
    </g>
    <g font-size="13" stroke-linecap="butt" transform="matrix(1,0,0,1,-303,-125)" text-rendering="geometricPrecision" font-family="sans-serif" shape-rendering="geometricPrecision" stroke-miterlimit="1.45">
      <text x="609.6479" xml:space="preserve" y="769.7505" clip-path="url(#clipPath2)" stroke="none">Decoder</text>
      <rect fill="none" x="476" width="322" height="50" y="740.25" clip-path="url(#clipPath2)"/>
      <text x="462.7617" xml:space="preserve" font-size="12" y="655.1543" clip-path="url(#clipPath2)" stroke="none">{ JSON }</text>
      <text x="801.7617" xml:space="preserve" font-size="12" y="660.6543" clip-path="url(#clipPath2)" stroke="none">{ JSON }</text>
      <text x="601.3555" xml:space="preserve" font-size="12" y="660.6543" clip-path="url(#clipPath2)" stroke="none">.   .    .    .    .</text>
    </g>
    <g fill="rgb(255,204,0)" text-rendering="geometricPrecision" shape-rendering="geometricPrecision" transform="matrix(1,0,0,1,-303,-125)" stroke="rgb(255,204,0)">
      <rect x="318" width="110" height="30" y="859" clip-path="url(#clipPath2)" stroke="none"/>
    </g>
    <g text-rendering="geometricPrecision" stroke-miterlimit="1.45" shape-rendering="geometricPrecision" font-family="sans-serif" transform="matrix(1,0,0,1,-303,-125)" stroke-linecap="butt">
      <text x="347.1631" xml:space="preserve" y="878.1543" clip-path="url(#clipPath2)" stroke="none">Packet 1</text>
      <rect fill="none" x="318" width="110" height="30" y="859" clip-path="url(#clipPath2)"/>
    </g>
    <g fill="rgb(255,204,0)" text-rendering="geometricPrecision" shape-rendering="geometricPrecision" transform="matrix(1,0,0,1,-303,-125)" stroke="rgb(255,204,0)">
      <rect x="493" width="110" height="30" y="859" clip-path="url(#clipPath2)" stroke="none"/>
    </g>
    <g text-rendering="geometricPrecision" stroke-miterlimit="1.45" shape-rendering="geometricPrecision" font-family="sans-serif" transform="matrix(1,0,0,1,-303,-125)" stroke-linecap="butt">
      <text x="522.1631" xml:space="preserve" y="878.1543" clip-path="url(#clipPath2)" stroke="none">Packet 2</text>
      <rect fill="none" x="493" width="110" height="30" y="859" clip-path="url(#clipPath2)"/>
    </g>
    <g fill="rgb(255,204,0)" text-rendering="geometricPrecision" shape-rendering="geometricPrecision" transform="matrix(1,0,0,1,-303,-125)" stroke="rgb(255,204,0)">
      <rect x="699" width="110" height="30" y="859" clip-path="url(#clipPath2)" stroke="none"/>
    </g>
    <g text-rendering="geometricPrecision" stroke-miterlimit="1.45" shape-rendering="geometricPrecision" font-family="sans-serif" transform="matrix(1,0,0,1,-303,-125)" stroke-linecap="butt">
      <text x="728.1631" xml:space="preserve" y="878.1543" clip-path="url(#clipPath2)" stroke="none">Packet 3</text>
      <rect fill="none" x="699" width="110" height="30" y="859" clip-path="url(#clipPath2)"/>
    </g>
    <g fill="rgb(255,204,0)" text-rendering="geometricPrecision" shape-rendering="geometricPrecision" transform="matrix(1,0,0,1,-303,-125)" stroke="rgb(255,204,0)">
      <rect x="888" width="110" height="30" y="859" clip-path="url(#clipPath2)" stroke="none"/>
    </g>
    <g text-rendering="geometricPrecision" stroke-miterlimit="1.45" shape-rendering="geometricPrecision" font-family="sans-serif" transform="matrix(1,0,0,1,-303,-125)" stroke-linecap="butt">
      <text x="917.1631" xml:space="preserve" y="878.1543" clip-path="url(#clipPath2)" stroke="none">Packet 4</text>
      <rect fill="none" x="888" width="110" height="30" y="859" clip-path="url(#clipPath2)"/>
    </g>
    <g text-rendering="geometricPrecision" stroke-miterlimit="1.45" shape-rendering="geometricPrecision" transform="matrix(1,0,0,1,-303,-125)" stroke-linecap="butt">
      <path fill="none" d="M638 346 L638 393.225 L633.25 390.375 L639.5 405.375 L645.75 390.375 L641 393.225 L641 346 Z" clip-path="url(#clipPath2)"/>
    </g>
    <g text-rendering="geometricPrecision" stroke-miterlimit="1.45" shape-rendering="geometricPrecision" transform="matrix(1,0,0,1,-303,-125)" stroke-linecap="butt">
      <path fill="none" d="M638 455.375 L638 491.6 L633.25 488.75 L639.5 503.75 L645.75 488.75 L641 491.6 L641 455.375 Z" clip-path="url(#clipPath2)"/>
    </g>
    <g text-rendering="geometricPrecision" stroke-miterlimit="1.45" shape-rendering="geometricPrecision" transform="matrix(1,0,0,1,-303,-125)" stroke-linecap="butt">
      <path fill="none" d="M638 553.75 L638 629.35 L633.25 626.5 L639.5 641.5 L645.75 626.5 L641 629.35 L641 553.75 Z" clip-path="url(#clipPath2)"/>
    </g>
    <g text-rendering="geometricPrecision" stroke-miterlimit="1.45" shape-rendering="geometricPrecision" transform="matrix(1,0,0,1,-303,-125)" stroke-linecap="butt">
      <path fill="none" d="M637.6556 671.4655 L636.3544 728.0687 L631.6711 725.1103 L631.6711 725.1103 L637.5747 740.25 L644.1678 725.3976 L644.1678 725.3976 L639.3536 728.1377 L639.3536 728.1377 L640.6547 671.5345 L637.6556 671.4655 Z" clip-path="url(#clipPath2)"/>
    </g>
    <g text-rendering="geometricPrecision" stroke-miterlimit="1.45" shape-rendering="geometricPrecision" transform="matrix(1,0,0,1,-303,-125)" stroke-linecap="butt">
      <path fill="none" d="M575.7385 788.8633 L420.0766 852.9853 L420.0766 852.9853 L420.9026 847.5079 L409.4138 859 L425.6637 859.0657 L425.6637 859.0657 L421.2193 855.7592 L421.2193 855.7592 L576.8823 791.6367 L575.7385 788.8633 Z" clip-path="url(#clipPath2)"/>
    </g>
    <g text-rendering="geometricPrecision" stroke-miterlimit="1.45" shape-rendering="geometricPrecision" transform="matrix(1,0,0,1,-303,-125)" stroke-linecap="butt">
      <path fill="none" d="M615.3793 789.3002 L566.8101 848.6474 L566.8101 848.6474 L564.9391 843.4335 L560.2759 859 L560.2759 859 L574.6126 851.3502 L569.1317 850.5474 L569.1317 850.5474 L617.7012 791.1998 L615.3793 789.3002 Z" clip-path="url(#clipPath2)"/>
    </g>
    <g text-rendering="geometricPrecision" stroke-miterlimit="1.45" shape-rendering="geometricPrecision" transform="matrix(1,0,0,1,-303,-125)" stroke-linecap="butt">
      <path fill="none" d="M664.9174 789.151 L662.8757 791.349 L727.9415 851.8268 L727.9415 851.8268 L722.6201 853.3657 L737.8621 859 L731.1302 844.21 L729.9839 849.6295 L664.9174 789.151 Z" clip-path="url(#clipPath2)"/>
    </g>
    <g text-rendering="geometricPrecision" stroke-miterlimit="1.45" shape-rendering="geometricPrecision" transform="matrix(1,0,0,1,-303,-125)" stroke-linecap="butt">
      <path fill="none" d="M707.848 788.8369 L706.8417 791.6631 L888.8423 856.3447 L888.8423 856.3447 L884.5662 859.866 L900.7931 859 L888.7521 848.0877 L889.8469 853.5179 L889.8469 853.5179 L707.848 788.8369 Z" clip-path="url(#clipPath2)"/>
    </g>
  </g>
</svg>
